<?xml version="1.0" encoding="UTF-8" standalone="no"?>
<!-- Created with Inkscape (http://www.inkscape.org/) -->

<svg
   width="100.66226mm"
   height="28.009569mm"
   viewBox="0 0 100.66226 28.009569"
   version="1.1"
   id="svg5"
   inkscape:version="1.1 (c68e22c387, 2021-05-23)"
   sodipodi:docname="logotype_rounded_color.svg"
   xmlns:inkscape="http://www.inkscape.org/namespaces/inkscape"
   xmlns:sodipodi="http://sodipodi.sourceforge.net/DTD/sodipodi-0.dtd"
   xmlns="http://www.w3.org/2000/svg"
   xmlns:svg="http://www.w3.org/2000/svg">
  <sodipodi:namedview
     id="namedview7"
     pagecolor="#ffffff"
     bordercolor="#999999"
     borderopacity="1"
     inkscape:pageshadow="0"
     inkscape:pageopacity="0"
     inkscape:pagecheckerboard="0"
     inkscape:document-units="mm"
     showgrid="false"
     fit-margin-top="0"
     fit-margin-left="0"
     fit-margin-right="0"
     fit-margin-bottom="0"
     inkscape:zoom="1.0633188"
     inkscape:cx="109.0924"
     inkscape:cy="44.671458"
     inkscape:window-width="1920"
     inkscape:window-height="1016"
     inkscape:window-x="1600"
     inkscape:window-y="27"
     inkscape:window-maximized="1"
     inkscape:current-layer="text3131" />
  <defs
     id="defs2">
    <inkscape:path-effect
       effect="powerclip"
       id="path-effect14683"
       is_visible="true"
       lpeversion="0"
       inverse="true"
       flatten="false"
       hide_clip="false"
       message="Use fill-rule evenodd on &lt;b&gt;fill and stroke&lt;/b&gt; dialog if no flatten result after convert clip to paths." />
    <clipPath
       clipPathUnits="userSpaceOnUse"
       id="clipPath14675">
      <path
         style="display:none;fill:#ffffff;stroke:none;stroke-width:0.264583px;stroke-linecap:butt;stroke-linejoin:miter;stroke-opacity:1"
         d="M 17.933497,4.7151708 H 12 l 5.933272,1.7149276 2.25e-4,-1.7149276"
         id="path14677" />
    </clipPath>
    <clipPath
       clipPathUnits="userSpaceOnUse"
       id="clipPath14679">
      <path
         style="fill:#ffffff;stroke:none;stroke-width:0.264583px;stroke-linecap:butt;stroke-linejoin:miter;stroke-opacity:1"
         d="M 17.933497,4.7151708 H 12 l 5.933272,1.7149276 2.25e-4,-1.7149276"
         id="path14681" />
    </clipPath>
    <clipPath
       clipPathUnits="userSpaceOnUse"
       id="clipPath14675-9">
      <path
         style="display:none;fill:#ffffff;stroke:none;stroke-width:0.264583px;stroke-linecap:butt;stroke-linejoin:miter;stroke-opacity:1"
         d="M 17.933497,4.7151708 H 12 l 5.933272,1.7149276 2.25e-4,-1.7149276"
         id="path14677-1" />
      <path
         id="lpe_path-effect14683-2"
         style="fill:#ffffff;stroke:none;stroke-width:0.264583px;stroke-linecap:butt;stroke-linejoin:miter;stroke-opacity:1"
         class="powerclip"
         d="M 7,8.15175 H 22.933497 V 19.86693 H 7 Z M 17.933497,4.7151708 H 12 l 5.933272,1.7149276 2.25e-4,-1.7149276" />
    </clipPath>
    <clipPath
       clipPathUnits="userSpaceOnUse"
       id="clipPath14679-7">
      <path
         style="fill:#ffffff;stroke:none;stroke-width:0.264583px;stroke-linecap:butt;stroke-linejoin:miter;stroke-opacity:1"
         d="M 17.933497,4.7151708 H 12 l 5.933272,1.7149276 2.25e-4,-1.7149276"
         id="path14681-0" />
    </clipPath>
    <clipPath
       clipPathUnits="userSpaceOnUse"
       id="clipath_lpe_path-effect14683">
      <path
         style="display:block;fill:#ffffff;stroke:none;stroke-width:0.264583px;stroke-linecap:butt;stroke-linejoin:miter;stroke-opacity:1"
         d="M 17.933497,4.7151708 H 12 l 5.933272,1.7149276 2.25e-4,-1.7149276"
         id="path1161" />
      <path
         id="lpe_path-effect14683-3"
         style="fill:#ffffff;stroke:none;stroke-width:0.264583px;stroke-linecap:butt;stroke-linejoin:miter;stroke-opacity:1"
         class="powerclip"
         d="M 7,8.15175 H 22.933497 V 19.86693 H 7 Z M 17.933497,4.7151708 H 12 l 5.933272,1.7149276 2.25e-4,-1.7149276" />
    </clipPath>
  </defs>
  <g
     inkscape:label="Layer 1"
     inkscape:groupmode="layer"
     id="layer1"
     transform="translate(-27.045885,-50.248634)">
    <g
       inkscape:label="Layer 1"
       id="layer1-5"
       transform="matrix(0.21860081,0,0,0.21860081,17.882184,44.103791)">
      <rect
         style="fill:#c13a38;fill-opacity:1;stroke:none;stroke-width:0.264583"
         id="rect882"
         width="128.13113"
         height="128.13113"
         x="41.919792"
         y="28.109884"
         ry="29.518517" />
      <g
         id="g10916"
         transform="matrix(13.680183,0,0,12.74444,-139.34508,14.884758)"
         style="stroke:#ffffff">
        <path
           style="fill:none;stroke:#ffffff;stroke-width:0.665;stroke-linecap:butt;stroke-linejoin:miter;stroke-miterlimit:4;stroke-dasharray:none;stroke-opacity:1"
           d="m 16.578044,8.35338 c 1.547164,-3.8148403 2.54717,-4.8166004 4.605394,-4.2193861 0.742101,0.241562 -0.280944,1.4116581 -3.250166,1.4291209"
           id="path7198"
           sodipodi:nodetypes="ccc" />
        <path
           style="display:inline;fill:none;stroke:#ffffff;stroke-width:0.665;stroke-linecap:butt;stroke-linejoin:miter;stroke-miterlimit:4;stroke-dasharray:none;stroke-opacity:1"
           d="M 19.2885,8.3533801 C 17.741336,4.5385397 16.74133,3.5367796 14.683106,4.1339939 13.941005,4.3755559 14.96405,5.545652 17.933272,5.5631148"
           id="path7198-6"
           sodipodi:nodetypes="ccc" />
      </g>
    </g>
    <g
       aria-label="GiftTrade"
       id="text3131"
       style="font-size:14.8167px;line-height:1.25;font-family:Inter;-inkscape-font-specification:Inter;stroke-width:0.264583">
      <path
         d="m 67.832183,62.577599 q -0.110493,-0.384098 -0.310435,-0.678748 -0.199941,-0.299912 -0.48933,-0.505115 -0.284127,-0.210464 -0.652439,-0.320958 -0.363052,-0.110494 -0.805027,-0.110494 -0.826073,0 -1.452205,0.410406 -0.62087,0.410406 -0.968137,1.194386 -0.347266,0.778718 -0.347266,1.904703 0,1.125985 0.342005,1.915227 0.342004,0.789242 0.968136,1.204909 0.626132,0.410406 1.478513,0.410406 0.773457,0 1.320665,-0.273604 0.552469,-0.278865 0.841858,-0.78398 0.29465,-0.505115 0.29465,-1.194386 l 0.463022,0.0684 h -2.778131 v -1.715286 h 4.509201 v 1.357496 q 0,1.420636 -0.599823,2.441389 -0.599824,1.015491 -1.652147,1.56796 -1.052322,0.547208 -2.409818,0.547208 -1.515344,0 -2.662376,-0.668225 -1.147031,-0.673486 -1.788948,-1.909965 -0.636655,-1.241741 -0.636655,-2.946503 0,-1.310142 0.378836,-2.336156 0.384098,-1.031276 1.073369,-1.746855 0.689271,-0.71558 1.604792,-1.089154 0.91552,-0.373574 1.983628,-0.373574 0.91552,0 1.704762,0.268342 0.789242,0.26308 1.399589,0.747149 0.615608,0.484068 1.004968,1.152293 0.389359,0.662963 0.499853,1.462728 z"
         style="font-weight:bold;-inkscape-font-specification:'Inter Bold';fill:#1a202c"
         id="path31029" />
      <path
         d="m 72.420283,69.870193 v -8.081836 h 2.241447 v 8.081836 z m 1.131247,-9.123635 q -0.499853,0 -0.857643,-0.331482 -0.357789,-0.336743 -0.357789,-0.805026 0,-0.463022 0.357789,-0.794504 0.35779,-0.336743 0.852381,-0.336743 0.505115,0 0.857643,0.336743 0.35779,0.331482 0.35779,0.794504 0,0.468283 -0.35779,0.805026 -0.352528,0.331482 -0.852381,0.331482 z"
         style="font-weight:bold;-inkscape-font-specification:'Inter Bold';fill:#1a202c"
         id="path31031" />
      <path
         d="m 80.796762,61.788357 v 1.683716 h -4.988008 v -1.683716 z m -3.846239,8.081836 v -8.665875 q 0,-0.878689 0.342005,-1.457466 0.347267,-0.578778 0.94709,-0.868166 0.599824,-0.289389 1.362758,-0.289389 0.515638,0 0.941829,0.07892 0.431452,0.07892 0.641916,0.142064 l -0.399882,1.683716 q -0.131541,-0.04209 -0.32622,-0.07892 -0.189418,-0.03683 -0.38936,-0.03683 -0.494591,0 -0.689271,0.231511 -0.194679,0.226249 -0.194679,0.636655 v 8.623782 z"
         style="font-weight:bold;-inkscape-font-specification:'Inter Bold';fill:#1a202c"
         id="path31033" />
      <path
         d="m 86.463505,61.788357 v 1.683716 H 81.596514 V 61.788357 Z M 82.701453,59.852084 H 84.9429 v 7.534629 q 0,0.310435 0.09471,0.484068 0.09471,0.168371 0.26308,0.236772 0.173633,0.0684 0.399883,0.0684 0.157848,0 0.315696,-0.02631 0.157849,-0.03157 0.242035,-0.04735 l 0.352528,1.667931 q -0.168372,0.05262 -0.473546,0.121017 -0.305173,0.07366 -0.741887,0.08945 -0.810288,0.03157 -1.420635,-0.215726 -0.605086,-0.247296 -0.941829,-0.768195 -0.336743,-0.5209 -0.331481,-1.315403 z"
         style="font-weight:bold;-inkscape-font-specification:'Inter Bold';fill:#1a202c"
         id="path31035" />
      <path
         d="m 87.047504,60.972807 v -1.878395 h 8.850032 v 1.878395 h -3.299031 v 8.897386 h -2.25197 v -8.897386 z"
         style="font-weight:bold;-inkscape-font-specification:'Inter Bold';fill:#1a202c"
         id="path31037" />
      <path
         d="m 96.476284,69.870193 v -8.081836 h 2.173046 v 1.410112 h 0.08419 q 0.220987,-0.75241 0.741887,-1.136508 0.5209,-0.389359 1.199647,-0.389359 0.16837,0 0.36305,0.02105 0.19468,0.02105 0.34201,0.05788 v 1.988889 q -0.15785,-0.04735 -0.43672,-0.08419 -0.27886,-0.03683 -0.51037,-0.03683 -0.494595,0 -0.883954,0.215726 -0.384098,0.210465 -0.610347,0.589301 -0.220988,0.378836 -0.220988,0.873427 v 4.572341 z"
         style="font-weight:bold;-inkscape-font-specification:'Inter Bold';fill:#1a202c"
         id="path31039" />
      <path
         d="m 104.60968,70.02278 q -0.77346,0 -1.37854,-0.268342 -0.60509,-0.273604 -0.95762,-0.805027 -0.34726,-0.536684 -0.34726,-1.336449 0,-0.673487 0.24729,-1.131247 0.2473,-0.45776 0.67349,-0.736625 0.42619,-0.278866 0.96813,-0.420929 0.54721,-0.142064 1.14704,-0.199942 0.70505,-0.07366 1.1365,-0.136802 0.43146,-0.0684 0.62614,-0.199941 0.19468,-0.13154 0.19468,-0.389359 v -0.03157 q 0,-0.499853 -0.3157,-0.773457 -0.31044,-0.273604 -0.88395,-0.273604 -0.60509,0 -0.96288,0.268343 -0.35779,0.26308 -0.47354,0.662963 l -2.07308,-0.168372 q 0.15785,-0.736626 0.62087,-1.27331 0.46302,-0.541946 1.19439,-0.831335 0.73662,-0.29465 1.70476,-0.29465 0.67349,0 1.2891,0.157848 0.62087,0.157849 1.09967,0.48933 0.48407,0.331482 0.76294,0.852381 0.27886,0.515638 0.27886,1.236479 v 5.45103 h -2.12569 V 68.74947 h -0.0631 q -0.19468,0.378836 -0.5209,0.668225 -0.32622,0.284127 -0.78398,0.447237 -0.45776,0.157848 -1.05758,0.157848 z m 0.64191,-1.546914 q 0.4946,0 0.87343,-0.194679 0.37884,-0.199942 0.59456,-0.536685 0.21573,-0.336743 0.21573,-0.762934 v -0.857642 q -0.10523,0.0684 -0.28939,0.126278 -0.17889,0.05262 -0.40514,0.09997 -0.22625,0.04209 -0.4525,0.07892 -0.22625,0.03157 -0.41041,0.05788 -0.39462,0.05788 -0.68927,0.184156 -0.29465,0.126279 -0.45776,0.342005 -0.16311,0.210465 -0.16311,0.526161 0,0.457761 0.33148,0.699795 0.33675,0.236772 0.85238,0.236772 z"
         style="font-weight:bold;-inkscape-font-specification:'Inter Bold';fill:#1a202c"
         id="path31041" />
      <path
         d="m 113.88063,70.001734 q -0.92078,0 -1.66793,-0.473545 -0.74188,-0.478807 -1.1786,-1.404851 -0.43145,-0.931305 -0.43145,-2.283539 0,-1.389066 0.44724,-2.309848 0.44723,-0.926044 1.18912,-1.383804 0.74715,-0.463022 1.63636,-0.463022 0.67875,0 1.13125,0.231511 0.45776,0.226249 0.73662,0.568254 0.28413,0.336743 0.43146,0.662963 h 0.0684 v -4.051441 h 2.23618 v 10.775781 h -2.20987 v -1.294356 h -0.0947 q -0.15785,0.336743 -0.44724,0.668225 -0.28413,0.32622 -0.74189,0.541946 -0.4525,0.215726 -1.10494,0.215726 z m 0.71032,-1.783687 q 0.54195,0 0.91552,-0.29465 0.37884,-0.299912 0.57878,-0.836596 0.2052,-0.536685 0.2052,-1.257526 0,-0.720841 -0.19994,-1.252263 -0.19994,-0.531423 -0.57878,-0.820812 -0.37883,-0.289389 -0.92078,-0.289389 -0.55247,0 -0.9313,0.299912 -0.37884,0.299912 -0.57352,0.831335 -0.19468,0.531423 -0.19468,1.231217 0,0.705056 0.19468,1.247002 0.19994,0.536685 0.57352,0.841858 0.37883,0.299912 0.9313,0.299912 z"
         style="font-weight:bold;-inkscape-font-specification:'Inter Bold';fill:#1a202c"
         id="path31043" />
      <path
         d="m 123.99871,70.028042 q -1.24701,0 -2.14674,-0.505115 -0.89447,-0.510376 -1.37854,-1.441682 -0.48407,-0.936567 -0.48407,-2.215138 0,-1.247003 0.48407,-2.188831 0.48407,-0.941829 1.36275,-1.46799 0.88396,-0.526161 2.07308,-0.526161 0.79976,0 1.48904,0.257819 0.69453,0.252557 1.21017,0.762934 0.5209,0.510376 0.81028,1.283833 0.28939,0.768195 0.28939,1.799471 v 0.615609 h -6.82431 v -1.389066 h 4.71441 q 0,-0.484068 -0.21047,-0.857642 -0.21046,-0.373575 -0.58404,-0.584039 -0.36831,-0.215726 -0.85764,-0.215726 -0.51038,0 -0.905,0.236772 -0.38936,0.231511 -0.61034,0.626132 -0.22099,0.389359 -0.22625,0.868166 v 1.320665 q 0,0.599823 0.22099,1.036537 0.22624,0.436714 0.63665,0.673487 0.41041,0.236772 0.9734,0.236772 0.37357,0 0.68401,-0.105232 0.31043,-0.105232 0.53142,-0.315697 0.22099,-0.210464 0.33674,-0.515638 l 2.07308,0.136802 q -0.15785,0.747149 -0.64718,1.30488 -0.48407,0.552469 -1.25226,0.862904 -0.76294,0.305174 -1.76264,0.305174 z"
         style="font-weight:bold;-inkscape-font-specification:'Inter Bold';fill:#1a202c"
         id="path31045" />
    </g>
  </g>
</svg>
